solid OpenSCAD_Model
  facet normal 0 -1 0
    outer loop
      vertex 0.5 0 50
      vertex 0.5 0 0
      vertex 5 0 0
    endloop
  endfacet
  facet normal 0 -1 0
    outer loop
      vertex 5 0 50
      vertex 0.5 0 50
      vertex 5 0 0
    endloop
  endfacet
  facet normal 0 0 -1
    outer loop
      vertex 0.5 0 0
      vertex 0.5 0.5 0
      vertex 5 0 0
    endloop
  endfacet
  facet normal 0 0 -1
    outer loop
      vertex 5 0 0
      vertex 0.5 0.5 0
      vertex 1 1 0
    endloop
  endfacet
  facet normal 0 0 -1
    outer loop
      vertex 5 0 0
      vertex 1 1 0
      vertex 4.5 1 0
    endloop
  endfacet
  facet normal 0 0 -1
    outer loop
      vertex 5 0 0
      vertex 4.5 1 0
      vertex 5 2 0
    endloop
  endfacet
  facet normal 0 0 -1
    outer loop
      vertex 5 2 0
      vertex 5 7 0
      vertex 5.5 7.5 0
    endloop
  endfacet
  facet normal 0 0 -1
    outer loop
      vertex 5 2 0
      vertex 5.5 7.5 0
      vertex 5 0 0
    endloop
  endfacet
  facet normal 0 0 -1
    outer loop
      vertex 7 6 0
      vertex 5.5 7.5 0
      vertex 14.98 7.5 0
    endloop
  endfacet
  facet normal 0 0 -1
    outer loop
      vertex 6.5 5.5 0
      vertex 5.5 7.5 0
      vertex 7 6 0
    endloop
  endfacet
  facet normal 0 0 -1
    outer loop
      vertex 6.5 1.5 0
      vertex 5 0 0
      vertex 6.5 5.5 0
    endloop
  endfacet
  facet normal 0 0 -1
    outer loop
      vertex 5 0 0
      vertex 5.5 7.5 0
      vertex 6.5 5.5 0
    endloop
  endfacet
  facet normal 0 0 -1
    outer loop
      vertex 6 0.5 0
      vertex 5 0 0
      vertex 6.5 1.5 0
    endloop
  endfacet
  facet normal 0 0 -1
    outer loop
      vertex 7 6 0
      vertex 14.98 7.5 0
      vertex 14.98 6 0
    endloop
  endfacet
  facet normal -1 0 0
    outer loop
      vertex 0.5 0 0
      vertex 0.5 0 50
      vertex 0.5 0.5 0
    endloop
  endfacet
  facet normal -1 0 0
    outer loop
      vertex 0.5 0.5 0
      vertex 0.5 0 50
      vertex 0.5 0.5 50
    endloop
  endfacet
  facet normal 0 0 1
    outer loop
      vertex 0.5 0.5 50
      vertex 0.5 0 50
      vertex 5 0 50
    endloop
  endfacet
  facet normal 0 0 1
    outer loop
      vertex 4.5 1 50
      vertex 0.5 0.5 50
      vertex 6 0.5 50
    endloop
  endfacet
  facet normal 0 0 1
    outer loop
      vertex 6 0.5 50
      vertex 0.5 0.5 50
      vertex 5 0 50
    endloop
  endfacet
  facet normal 0 0 1
    outer loop
      vertex 4.5 1 50
      vertex 1 1 50
      vertex 0.5 0.5 50
    endloop
  endfacet
  facet normal 0 0 1
    outer loop
      vertex 5 2 50
      vertex 4.5 1 50
      vertex 6.5 1.5 50
    endloop
  endfacet
  facet normal 0 0 1
    outer loop
      vertex 20.02 6 50
      vertex 7 6 50
      vertex 28 6 50
    endloop
  endfacet
  facet normal 0 0 1
    outer loop
      vertex 29 0.5 50
      vertex 28.5 5.5 50
      vertex 28.5 1.5 50
    endloop
  endfacet
  facet normal 0 0 1
    outer loop
      vertex 30 0 50
      vertex 28.5 5.5 50
      vertex 29 0.5 50
    endloop
  endfacet
  facet normal 0 0 1
    outer loop
      vertex 30 2 50
      vertex 28.5 5.5 50
      vertex 30 0 50
    endloop
  endfacet
  facet normal 0 0 1
    outer loop
      vertex 28.5 5.5 50
      vertex 30 7 50
      vertex 28 6 50
    endloop
  endfacet
  facet normal 0 0 1
    outer loop
      vertex 30 2 50
      vertex 30 7 50
      vertex 28.5 5.5 50
    endloop
  endfacet
  facet normal 0 0 1
    outer loop
      vertex 34.5 0 50
      vertex 30.5 1 50
      vertex 30 0 50
    endloop
  endfacet
  facet normal 0 0 1
    outer loop
      vertex 30.5 1 50
      vertex 30 2 50
      vertex 30 0 50
    endloop
  endfacet
  facet normal 0 0 1
    outer loop
      vertex 20.02 7.5 50
      vertex 20.02 6 50
      vertex 30 7 50
    endloop
  endfacet
  facet normal 0 0 1
    outer loop
      vertex 5 7 50
      vertex 7 6 50
      vertex 5.5 7.5 50
    endloop
  endfacet
  facet normal 0 0 1
    outer loop
      vertex 30 7 50
      vertex 20.02 6 50
      vertex 28 6 50
    endloop
  endfacet
  facet normal 0 0 1
    outer loop
      vertex 14.98 6 50
      vertex 7 6 50
      vertex 20.02 6 50
    endloop
  endfacet
  facet normal 0 0 1
    outer loop
      vertex 14.98 6 50
      vertex 14.98 7.5 50
      vertex 7 6 50
    endloop
  endfacet
  facet normal 0 0 1
    outer loop
      vertex 5.5 7.5 50
      vertex 7 6 50
      vertex 14.98 7.5 50
    endloop
  endfacet
  facet normal 0 0 1
    outer loop
      vertex 6.5 5.5 50
      vertex 5 2 50
      vertex 6.5 1.5 50
    endloop
  endfacet
  facet normal 0 0 1
    outer loop
      vertex 6.5 1.5 50
      vertex 4.5 1 50
      vertex 6 0.5 50
    endloop
  endfacet
  facet normal 0 0 1
    outer loop
      vertex 20.02 7.5 50
      vertex 30 7 50
      vertex 29.5 7.5 50
    endloop
  endfacet
  facet normal 0 0 1
    outer loop
      vertex 34 1 50
      vertex 34.5 0 50
      vertex 34.5 0.5 50
    endloop
  endfacet
  facet normal 0 0 1
    outer loop
      vertex 34 1 50
      vertex 30.5 1 50
      vertex 34.5 0 50
    endloop
  endfacet
  facet normal 0 0 1
    outer loop
      vertex 5 7 50
      vertex 6.5 5.5 50
      vertex 7 6 50
    endloop
  endfacet
  facet normal 0 0 1
    outer loop
      vertex 5 7 50
      vertex 5 2 50
      vertex 6.5 5.5 50
    endloop
  endfacet
  facet normal 0.447214 -0.894427 0
    outer loop
      vertex 5 0 50
      vertex 5 0 0
      vertex 6 0.5 0
    endloop
  endfacet
  facet normal 0.447214 -0.894427 0
    outer loop
      vertex 6 0.5 50
      vertex 5 0 50
      vertex 6 0.5 0
    endloop
  endfacet
  facet normal 0.894427 -0.447214 0
    outer loop
      vertex 6 0.5 50
      vertex 6 0.5 0
      vertex 6.5 1.5 0
    endloop
  endfacet
  facet normal 0.894427 -0.447214 0
    outer loop
      vertex 6.5 1.5 50
      vertex 6 0.5 50
      vertex 6.5 1.5 0
    endloop
  endfacet
  facet normal 1 0 0
    outer loop
      vertex 6.5 1.5 50
      vertex 6.5 1.5 0
      vertex 6.5 5.5 0
    endloop
  endfacet
  facet normal 1 0 0
    outer loop
      vertex 6.5 5.5 50
      vertex 6.5 1.5 50
      vertex 6.5 5.5 0
    endloop
  endfacet
  facet normal 0.707107 -0.707107 0
    outer loop
      vertex 6.5 5.5 50
      vertex 6.5 5.5 0
      vertex 7 6 0
    endloop
  endfacet
  facet normal 0.707107 -0.707107 0
    outer loop
      vertex 7 6 50
      vertex 6.5 5.5 50
      vertex 7 6 0
    endloop
  endfacet
  facet normal 0 -1 0
    outer loop
      vertex 13.9 6 5.4
      vertex 7 6 0
      vertex 14.98 6 0
    endloop
  endfacet
  facet normal 0 -1 0
    outer loop
      vertex 7 6 50
      vertex 7 6 0
      vertex 13.9 6 5.4
    endloop
  endfacet
  facet normal 0 -1 0
    outer loop
      vertex 17.5 6 19.3333
      vertex 16.4393 6 19.7727
      vertex 21.6 6 5.4
    endloop
  endfacet
  facet normal 0 -1 0
    outer loop
      vertex 16 6 20.8333
      vertex 16.4393 6 21.894
      vertex 7 6 50
    endloop
  endfacet
  facet normal 0 -1 0
    outer loop
      vertex 28 6 0
      vertex 21.6 6 5.4
      vertex 20.52 6 0
    endloop
  endfacet
  facet normal 0 -1 0
    outer loop
      vertex 16.4393 6 36.4393
      vertex 7 6 50
      vertex 28 6 0
    endloop
  endfacet
  facet normal 0 -1 0
    outer loop
      vertex 19 6 20.8333
      vertex 18.5607 6 19.7727
      vertex 28 6 0
    endloop
  endfacet
  facet normal 0 -1 0
    outer loop
      vertex 17.5 6 22.3333
      vertex 7 6 50
      vertex 16.4393 6 21.894
    endloop
  endfacet
  facet normal 0 -1 0
    outer loop
      vertex 18.5607 6 21.894
      vertex 7 6 50
      vertex 17.5 6 22.3333
    endloop
  endfacet
  facet normal 0 -1 0
    outer loop
      vertex 28 6 0
      vertex 7 6 50
      vertex 18.5607 6 21.894
    endloop
  endfacet
  facet normal 0 -1 0
    outer loop
      vertex 18.5607 6 19.7727
      vertex 17.5 6 19.3333
      vertex 28 6 0
    endloop
  endfacet
  facet normal 0 -1 0
    outer loop
      vertex 28 6 0
      vertex 18.5607 6 21.894
      vertex 19 6 20.8333
    endloop
  endfacet
  facet normal 0 -1 0
    outer loop
      vertex 16.4393 6 38.5607
      vertex 17.5 6 39
      vertex 28 6 50
    endloop
  endfacet
  facet normal 0 -1 0
    outer loop
      vertex 28 6 0
      vertex 17.5 6 19.3333
      vertex 21.6 6 5.4
    endloop
  endfacet
  facet normal 0 -1 0
    outer loop
      vertex 17.5 6 36
      vertex 16.4393 6 36.4393
      vertex 28 6 0
    endloop
  endfacet
  facet normal 0 -1 0
    outer loop
      vertex 16 6 37.5
      vertex 7 6 50
      vertex 16.4393 6 36.4393
    endloop
  endfacet
  facet normal 0 -1 0
    outer loop
      vertex 16.4393 6 38.5607
      vertex 7 6 50
      vertex 16 6 37.5
    endloop
  endfacet
  facet normal 0 -1 0
    outer loop
      vertex 17.5 6 39
      vertex 18.5607 6 38.5607
      vertex 28 6 50
    endloop
  endfacet
  facet normal 0 -1 0
    outer loop
      vertex 28 6 50
      vertex 7 6 50
      vertex 16.4393 6 38.5607
    endloop
  endfacet
  facet normal 0 -1 0
    outer loop
      vertex 19 6 37.5
      vertex 18.5607 6 36.4393
      vertex 28 6 0
    endloop
  endfacet
  facet normal 0 -1 0
    outer loop
      vertex 28 6 50
      vertex 19 6 37.5
      vertex 28 6 0
    endloop
  endfacet
  facet normal 0 -1 0
    outer loop
      vertex 28 6 50
      vertex 18.5607 6 38.5607
      vertex 19 6 37.5
    endloop
  endfacet
  facet normal 0 -1 0
    outer loop
      vertex 18.5607 6 36.4393
      vertex 17.5 6 36
      vertex 28 6 0
    endloop
  endfacet
  facet normal 0 -1 0
    outer loop
      vertex 13.9 6 5.4
      vertex 16 6 20.8333
      vertex 7 6 50
    endloop
  endfacet
  facet normal 0 -1 0
    outer loop
      vertex 13.9 6 5.4
      vertex 16.4393 6 19.7727
      vertex 16 6 20.8333
    endloop
  endfacet
  facet normal 0 -1 0
    outer loop
      vertex 13.9 6 5.4
      vertex 21.6 6 5.4
      vertex 16.4393 6 19.7727
    endloop
  endfacet
  facet normal 0.980581 4.35465e-017 0.196116
    outer loop
      vertex 14.98 6 0
      vertex 14.98 7.5 0
      vertex 13.9 7.5 5.4
    endloop
  endfacet
  facet normal 0.980581 4.35465e-017 0.196116
    outer loop
      vertex 13.9 6 5.4
      vertex 14.98 6 0
      vertex 13.9 7.5 5.4
    endloop
  endfacet
  facet normal 0 1 0
    outer loop
      vertex 17.5 7.5 19.3333
      vertex 13.9 7.5 5.4
      vertex 16.4393 7.5 19.7727
    endloop
  endfacet
  facet normal 0 1 0
    outer loop
      vertex 17.5 7.5 22.3333
      vertex 29.5 7.5 50
      vertex 18.5607 7.5 21.894
    endloop
  endfacet
  facet normal 0 1 0
    outer loop
      vertex 16 7.5 37.5
      vertex 15 7.5 49.9
      vertex 20 7.5 49.9
    endloop
  endfacet
  facet normal 0 1 0
    outer loop
      vertex 19 7.5 37.5
      vertex 20.02 7.5 50
      vertex 29.5 7.5 50
    endloop
  endfacet
  facet normal 0 1 0
    outer loop
      vertex 21.6 7.5 5.4
      vertex 29.5 7.5 50
      vertex 29.5 7.5 0
    endloop
  endfacet
  facet normal 0 1 0
    outer loop
      vertex 20.52 7.5 0
      vertex 21.6 7.5 5.4
      vertex 29.5 7.5 0
    endloop
  endfacet
  facet normal 0 1 0
    outer loop
      vertex 5.5 7.5 0
      vertex 5.5 7.5 50
      vertex 13.9 7.5 5.4
    endloop
  endfacet
  facet normal 0 1 0
    outer loop
      vertex 5.5 7.5 0
      vertex 13.9 7.5 5.4
      vertex 14.98 7.5 0
    endloop
  endfacet
  facet normal 0 1 0
    outer loop
      vertex 17.5 7.5 39
      vertex 20 7.5 49.9
      vertex 18.5607 7.5 38.5607
    endloop
  endfacet
  facet normal 0 1 0
    outer loop
      vertex 17.5 7.5 22.3333
      vertex 19 7.5 37.5
      vertex 29.5 7.5 50
    endloop
  endfacet
  facet normal 0 1 0
    outer loop
      vertex 18.5607 7.5 38.5607
      vertex 20 7.5 49.9
      vertex 20.02 7.5 50
    endloop
  endfacet
  facet normal 0 1 0
    outer loop
      vertex 16 7.5 20.8333
      vertex 15 7.5 49.9
      vertex 16 7.5 37.5
    endloop
  endfacet
  facet normal 0 1 0
    outer loop
      vertex 16.4393 7.5 38.5607
      vertex 16 7.5 37.5
      vertex 20 7.5 49.9
    endloop
  endfacet
  facet normal 0 1 0
    outer loop
      vertex 16 7.5 20.8333
      vertex 16 7.5 37.5
      vertex 16.4393 7.5 36.4393
    endloop
  endfacet
  facet normal 0 1 0
    outer loop
      vertex 16 7.5 20.8333
      vertex 16.4393 7.5 36.4393
      vertex 17.5 7.5 36
    endloop
  endfacet
  facet normal 0 1 0
    outer loop
      vertex 19 7.5 37.5
      vertex 17.5 7.5 22.3333
      vertex 18.5607 7.5 36.4393
    endloop
  endfacet
  facet normal 0 1 0
    outer loop
      vertex 16.4393 7.5 21.894
      vertex 18.5607 7.5 36.4393
      vertex 17.5 7.5 22.3333
    endloop
  endfacet
  facet normal 0 1 0
    outer loop
      vertex 18.5607 7.5 36.4393
      vertex 16.4393 7.5 21.894
      vertex 16 7.5 20.8333
    endloop
  endfacet
  facet normal 0 1 0
    outer loop
      vertex 18.5607 7.5 36.4393
      vertex 16 7.5 20.8333
      vertex 17.5 7.5 36
    endloop
  endfacet
  facet normal 0 1 0
    outer loop
      vertex 16.4393 7.5 38.5607
      vertex 20 7.5 49.9
      vertex 17.5 7.5 39
    endloop
  endfacet
  facet normal 0 1 0
    outer loop
      vertex 13.9 7.5 5.4
      vertex 5.5 7.5 50
      vertex 14.98 7.5 50
    endloop
  endfacet
  facet normal 0 1 0
    outer loop
      vertex 13.9 7.5 5.4
      vertex 14.98 7.5 50
      vertex 15 7.5 49.9
    endloop
  endfacet
  facet normal 0 1 0
    outer loop
      vertex 13.9 7.5 5.4
      vertex 15 7.5 49.9
      vertex 16 7.5 20.8333
    endloop
  endfacet
  facet normal 0 1 0
    outer loop
      vertex 13.9 7.5 5.4
      vertex 16 7.5 20.8333
      vertex 16.4393 7.5 19.7727
    endloop
  endfacet
  facet normal 0 1 0
    outer loop
      vertex 18.5607 7.5 38.5607
      vertex 20.02 7.5 50
      vertex 19 7.5 37.5
    endloop
  endfacet
  facet normal 0 1 0
    outer loop
      vertex 18.5607 7.5 21.894
      vertex 29.5 7.5 50
      vertex 19 7.5 20.8333
    endloop
  endfacet
  facet normal 0 1 0
    outer loop
      vertex 13.9 7.5 5.4
      vertex 17.5 7.5 19.3333
      vertex 18.5607 7.5 19.7727
    endloop
  endfacet
  facet normal 0 1 0
    outer loop
      vertex 13.9 7.5 5.4
      vertex 18.5607 7.5 19.7727
      vertex 19 7.5 20.8333
    endloop
  endfacet
  facet normal 0 1 0
    outer loop
      vertex 13.9 7.5 5.4
      vertex 19 7.5 20.8333
      vertex 29.5 7.5 50
    endloop
  endfacet
  facet normal 0 1 0
    outer loop
      vertex 13.9 7.5 5.4
      vertex 29.5 7.5 50
      vertex 21.6 7.5 5.4
    endloop
  endfacet
  facet normal -0.707107 0.707107 0
    outer loop
      vertex 5 7 0
      vertex 5 7 50
      vertex 5.5 7.5 0
    endloop
  endfacet
  facet normal -0.707107 0.707107 0
    outer loop
      vertex 5.5 7.5 0
      vertex 5 7 50
      vertex 5.5 7.5 50
    endloop
  endfacet
  facet normal -1 0 0
    outer loop
      vertex 5 2 0
      vertex 5 2 50
      vertex 5 7 0
    endloop
  endfacet
  facet normal -1 0 0
    outer loop
      vertex 5 7 0
      vertex 5 2 50
      vertex 5 7 50
    endloop
  endfacet
  facet normal -0.894427 0.447214 0
    outer loop
      vertex 4.5 1 0
      vertex 4.5 1 50
      vertex 5 2 0
    endloop
  endfacet
  facet normal -0.894427 0.447214 0
    outer loop
      vertex 5 2 0
      vertex 4.5 1 50
      vertex 5 2 50
    endloop
  endfacet
  facet normal 0 1 0
    outer loop
      vertex 1 1 0
      vertex 1 1 50
      vertex 4.5 1 0
    endloop
  endfacet
  facet normal 0 1 0
    outer loop
      vertex 4.5 1 0
      vertex 1 1 50
      vertex 4.5 1 50
    endloop
  endfacet
  facet normal -0.707107 0.707107 0
    outer loop
      vertex 0.5 0.5 0
      vertex 0.5 0.5 50
      vertex 1 1 0
    endloop
  endfacet
  facet normal -0.707107 0.707107 0
    outer loop
      vertex 1 1 0
      vertex 0.5 0.5 50
      vertex 1 1 50
    endloop
  endfacet
  facet normal -0.980581 -4.35465e-017 -0.196116
    outer loop
      vertex 14 6 54.9
      vertex 14 7.5 54.9
      vertex 14.98 6 50
    endloop
  endfacet
  facet normal -0.980581 -4.35465e-017 -0.196116
    outer loop
      vertex 14.98 7.5 50
      vertex 14 7.5 54.9
      vertex 15 7.5 49.9
    endloop
  endfacet
  facet normal -0.980581 -4.35465e-017 -0.196116
    outer loop
      vertex 14.98 6 50
      vertex 14 7.5 54.9
      vertex 14.98 7.5 50
    endloop
  endfacet
  facet normal -2.71917e-032 -1 2.22045e-016
    outer loop
      vertex 21 6 54.9
      vertex 14 6 54.9
      vertex 14.98 6 50
    endloop
  endfacet
  facet normal -2.71917e-032 -1 2.22045e-016
    outer loop
      vertex 20.02 6 50
      vertex 21 6 54.9
      vertex 14.98 6 50
    endloop
  endfacet
  facet normal 0.980581 -4.35465e-017 -0.196116
    outer loop
      vertex 21 6 54.9
      vertex 20.02 7.5 50
      vertex 21 7.5 54.9
    endloop
  endfacet
  facet normal 0.980581 -4.35465e-017 -0.196116
    outer loop
      vertex 21 7.5 54.9
      vertex 20.02 7.5 50
      vertex 20 7.5 49.9
    endloop
  endfacet
  facet normal 0.980581 -4.35465e-017 -0.196116
    outer loop
      vertex 20.02 6 50
      vertex 20.02 7.5 50
      vertex 21 6 54.9
    endloop
  endfacet
  facet normal 0.707107 0.707107 0
    outer loop
      vertex 29.5 7.5 0
      vertex 29.5 7.5 50
      vertex 30 7 0
    endloop
  endfacet
  facet normal 0.707107 0.707107 0
    outer loop
      vertex 30 7 0
      vertex 29.5 7.5 50
      vertex 30 7 50
    endloop
  endfacet
  facet normal 1 0 0
    outer loop
      vertex 30 2 50
      vertex 30 2 0
      vertex 30 7 0
    endloop
  endfacet
  facet normal 1 0 0
    outer loop
      vertex 30 7 50
      vertex 30 2 50
      vertex 30 7 0
    endloop
  endfacet
  facet normal 0.894427 0.447214 0
    outer loop
      vertex 30.5 1 0
      vertex 30 2 0
      vertex 30 2 50
    endloop
  endfacet
  facet normal 0.894427 0.447214 0
    outer loop
      vertex 30.5 1 50
      vertex 30.5 1 0
      vertex 30 2 50
    endloop
  endfacet
  facet normal 0 1 0
    outer loop
      vertex 30.5 1 0
      vertex 30.5 1 50
      vertex 34 1 0
    endloop
  endfacet
  facet normal 0 1 0
    outer loop
      vertex 34 1 0
      vertex 30.5 1 50
      vertex 34 1 50
    endloop
  endfacet
  facet normal 0.707107 0.707107 0
    outer loop
      vertex 34 1 0
      vertex 34 1 50
      vertex 34.5 0.5 0
    endloop
  endfacet
  facet normal 0.707107 0.707107 0
    outer loop
      vertex 34.5 0.5 0
      vertex 34 1 50
      vertex 34.5 0.5 50
    endloop
  endfacet
  facet normal 1 0 0
    outer loop
      vertex 34.5 0 50
      vertex 34.5 0 0
      vertex 34.5 0.5 0
    endloop
  endfacet
  facet normal 1 0 0
    outer loop
      vertex 34.5 0.5 50
      vertex 34.5 0 50
      vertex 34.5 0.5 0
    endloop
  endfacet
  facet normal 0 -1 0
    outer loop
      vertex 30 0 50
      vertex 30 0 0
      vertex 34.5 0 0
    endloop
  endfacet
  facet normal 0 -1 0
    outer loop
      vertex 34.5 0 50
      vertex 30 0 50
      vertex 34.5 0 0
    endloop
  endfacet
  facet normal -0.447214 -0.894427 0
    outer loop
      vertex 29 0.5 50
      vertex 29 0.5 0
      vertex 30 0 0
    endloop
  endfacet
  facet normal -0.447214 -0.894427 0
    outer loop
      vertex 30 0 50
      vertex 29 0.5 50
      vertex 30 0 0
    endloop
  endfacet
  facet normal -0.894427 -0.447214 0
    outer loop
      vertex 28.5 1.5 0
      vertex 29 0.5 0
      vertex 28.5 1.5 50
    endloop
  endfacet
  facet normal -0.894427 -0.447214 0
    outer loop
      vertex 28.5 1.5 50
      vertex 29 0.5 0
      vertex 29 0.5 50
    endloop
  endfacet
  facet normal -1 0 0
    outer loop
      vertex 28.5 1.5 0
      vertex 28.5 1.5 50
      vertex 28.5 5.5 0
    endloop
  endfacet
  facet normal -1 0 0
    outer loop
      vertex 28.5 5.5 0
      vertex 28.5 1.5 50
      vertex 28.5 5.5 50
    endloop
  endfacet
  facet normal -0.707107 -0.707107 0
    outer loop
      vertex 28 6 50
      vertex 28 6 0
      vertex 28.5 5.5 0
    endloop
  endfacet
  facet normal -0.707107 -0.707107 0
    outer loop
      vertex 28.5 5.5 50
      vertex 28 6 50
      vertex 28.5 5.5 0
    endloop
  endfacet
  facet normal 0 0 -1
    outer loop
      vertex 20.52 6 0
      vertex 20.52 7.5 0
      vertex 28 6 0
    endloop
  endfacet
  facet normal 0 0 -1
    outer loop
      vertex 28 6 0
      vertex 20.52 7.5 0
      vertex 29.5 7.5 0
    endloop
  endfacet
  facet normal 0 0 -1
    outer loop
      vertex 28 6 0
      vertex 29.5 7.5 0
      vertex 30 7 0
    endloop
  endfacet
  facet normal 0 0 -1
    outer loop
      vertex 28.5 5.5 0
      vertex 30 7 0
      vertex 30 2 0
    endloop
  endfacet
  facet normal 0 0 -1
    outer loop
      vertex 30.5 1 0
      vertex 34 1 0
      vertex 34.5 0.5 0
    endloop
  endfacet
  facet normal 0 0 -1
    outer loop
      vertex 30.5 1 0
      vertex 34.5 0.5 0
      vertex 34.5 0 0
    endloop
  endfacet
  facet normal 0 0 -1
    outer loop
      vertex 30.5 1 0
      vertex 34.5 0 0
      vertex 30 0 0
    endloop
  endfacet
  facet normal 0 0 -1
    outer loop
      vertex 30 2 0
      vertex 30.5 1 0
      vertex 28.5 1.5 0
    endloop
  endfacet
  facet normal 0 0 -1
    outer loop
      vertex 28.5 5.5 0
      vertex 30 2 0
      vertex 28.5 1.5 0
    endloop
  endfacet
  facet normal 0 0 -1
    outer loop
      vertex 30.5 1 0
      vertex 30 0 0
      vertex 28.5 1.5 0
    endloop
  endfacet
  facet normal 0 0 -1
    outer loop
      vertex 28 6 0
      vertex 30 7 0
      vertex 28.5 5.5 0
    endloop
  endfacet
  facet normal 0 0 -1
    outer loop
      vertex 28.5 1.5 0
      vertex 30 0 0
      vertex 29 0.5 0
    endloop
  endfacet
  facet normal -0.980581 4.35465e-017 0.196116
    outer loop
      vertex 21.6 7.5 5.4
      vertex 20.52 7.5 0
      vertex 21.6 6 5.4
    endloop
  endfacet
  facet normal -0.980581 4.35465e-017 0.196116
    outer loop
      vertex 21.6 6 5.4
      vertex 20.52 7.5 0
      vertex 20.52 6 0
    endloop
  endfacet
  facet normal 0 -2.22045e-016 -1
    outer loop
      vertex 21.6 7.5 5.4
      vertex 21.6 6 5.4
      vertex 13.9 7.5 5.4
    endloop
  endfacet
  facet normal 0 -2.22045e-016 -1
    outer loop
      vertex 13.9 7.5 5.4
      vertex 21.6 6 5.4
      vertex 13.9 6 5.4
    endloop
  endfacet
  facet normal 0.923879 8.49728e-017 0.382684
    outer loop
      vertex 16.4393 6 19.7727
      vertex 16.4393 7.5 19.7727
      vertex 16 7.5 20.8333
    endloop
  endfacet
  facet normal 0.923879 8.49728e-017 0.382684
    outer loop
      vertex 16 6 20.8333
      vertex 16.4393 6 19.7727
      vertex 16 7.5 20.8333
    endloop
  endfacet
  facet normal 0.382684 2.05142e-016 0.923879
    outer loop
      vertex 17.5 6 19.3333
      vertex 17.5 7.5 19.3333
      vertex 16.4393 7.5 19.7727
    endloop
  endfacet
  facet normal 0.382684 2.05142e-016 0.923879
    outer loop
      vertex 16.4393 6 19.7727
      vertex 17.5 6 19.3333
      vertex 16.4393 7.5 19.7727
    endloop
  endfacet
  facet normal -0.382684 2.05142e-016 0.923879
    outer loop
      vertex 18.5607 6 19.7727
      vertex 18.5607 7.5 19.7727
      vertex 17.5 7.5 19.3333
    endloop
  endfacet
  facet normal -0.382684 2.05142e-016 0.923879
    outer loop
      vertex 17.5 6 19.3333
      vertex 18.5607 6 19.7727
      vertex 17.5 7.5 19.3333
    endloop
  endfacet
  facet normal -0.923879 8.49728e-017 0.382684
    outer loop
      vertex 19 7.5 20.8333
      vertex 18.5607 7.5 19.7727
      vertex 19 6 20.8333
    endloop
  endfacet
  facet normal -0.923879 8.49728e-017 0.382684
    outer loop
      vertex 19 6 20.8333
      vertex 18.5607 7.5 19.7727
      vertex 18.5607 6 19.7727
    endloop
  endfacet
  facet normal -0.923879 -8.49728e-017 -0.382684
    outer loop
      vertex 19 7.5 20.8333
      vertex 19 6 20.8333
      vertex 18.5607 7.5 21.894
    endloop
  endfacet
  facet normal -0.923879 -8.49728e-017 -0.382684
    outer loop
      vertex 18.5607 7.5 21.894
      vertex 19 6 20.8333
      vertex 18.5607 6 21.894
    endloop
  endfacet
  facet normal -0.382684 -2.05142e-016 -0.923879
    outer loop
      vertex 18.5607 7.5 21.894
      vertex 18.5607 6 21.894
      vertex 17.5 7.5 22.3333
    endloop
  endfacet
  facet normal -0.382684 -2.05142e-016 -0.923879
    outer loop
      vertex 17.5 7.5 22.3333
      vertex 18.5607 6 21.894
      vertex 17.5 6 22.3333
    endloop
  endfacet
  facet normal 0.382684 -2.05142e-016 -0.923879
    outer loop
      vertex 17.5 7.5 22.3333
      vertex 17.5 6 22.3333
      vertex 16.4393 7.5 21.894
    endloop
  endfacet
  facet normal 0.382684 -2.05142e-016 -0.923879
    outer loop
      vertex 16.4393 7.5 21.894
      vertex 17.5 6 22.3333
      vertex 16.4393 6 21.894
    endloop
  endfacet
  facet normal 0.923879 -8.49728e-017 -0.382684
    outer loop
      vertex 16 7.5 20.8333
      vertex 16.4393 7.5 21.894
      vertex 16.4393 6 21.894
    endloop
  endfacet
  facet normal 0.923879 -8.49728e-017 -0.382684
    outer loop
      vertex 16 6 20.8333
      vertex 16 7.5 20.8333
      vertex 16.4393 6 21.894
    endloop
  endfacet
  facet normal 0.923879 8.49728e-017 0.382684
    outer loop
      vertex 16.4393 6 36.4393
      vertex 16.4393 7.5 36.4393
      vertex 16 7.5 37.5
    endloop
  endfacet
  facet normal 0.923879 8.49728e-017 0.382684
    outer loop
      vertex 16 6 37.5
      vertex 16.4393 6 36.4393
      vertex 16 7.5 37.5
    endloop
  endfacet
  facet normal 0.382684 2.05142e-016 0.923879
    outer loop
      vertex 17.5 6 36
      vertex 17.5 7.5 36
      vertex 16.4393 7.5 36.4393
    endloop
  endfacet
  facet normal 0.382684 2.05142e-016 0.923879
    outer loop
      vertex 16.4393 6 36.4393
      vertex 17.5 6 36
      vertex 16.4393 7.5 36.4393
    endloop
  endfacet
  facet normal -0.382684 2.05142e-016 0.923879
    outer loop
      vertex 18.5607 6 36.4393
      vertex 18.5607 7.5 36.4393
      vertex 17.5 7.5 36
    endloop
  endfacet
  facet normal -0.382684 2.05142e-016 0.923879
    outer loop
      vertex 17.5 6 36
      vertex 18.5607 6 36.4393
      vertex 17.5 7.5 36
    endloop
  endfacet
  facet normal -0.923879 8.49728e-017 0.382684
    outer loop
      vertex 19 7.5 37.5
      vertex 18.5607 7.5 36.4393
      vertex 19 6 37.5
    endloop
  endfacet
  facet normal -0.923879 8.49728e-017 0.382684
    outer loop
      vertex 19 6 37.5
      vertex 18.5607 7.5 36.4393
      vertex 18.5607 6 36.4393
    endloop
  endfacet
  facet normal -0.923879 -8.49728e-017 -0.382684
    outer loop
      vertex 19 7.5 37.5
      vertex 19 6 37.5
      vertex 18.5607 7.5 38.5607
    endloop
  endfacet
  facet normal -0.923879 -8.49728e-017 -0.382684
    outer loop
      vertex 18.5607 7.5 38.5607
      vertex 19 6 37.5
      vertex 18.5607 6 38.5607
    endloop
  endfacet
  facet normal -0.382684 -2.05142e-016 -0.923879
    outer loop
      vertex 18.5607 7.5 38.5607
      vertex 18.5607 6 38.5607
      vertex 17.5 7.5 39
    endloop
  endfacet
  facet normal -0.382684 -2.05142e-016 -0.923879
    outer loop
      vertex 17.5 7.5 39
      vertex 18.5607 6 38.5607
      vertex 17.5 6 39
    endloop
  endfacet
  facet normal 0.382684 -2.05142e-016 -0.923879
    outer loop
      vertex 17.5 7.5 39
      vertex 17.5 6 39
      vertex 16.4393 7.5 38.5607
    endloop
  endfacet
  facet normal 0.382684 -2.05142e-016 -0.923879
    outer loop
      vertex 16.4393 7.5 38.5607
      vertex 17.5 6 39
      vertex 16.4393 6 38.5607
    endloop
  endfacet
  facet normal 0.923879 -8.49728e-017 -0.382684
    outer loop
      vertex 16 7.5 37.5
      vertex 16.4393 7.5 38.5607
      vertex 16.4393 6 38.5607
    endloop
  endfacet
  facet normal 0.923879 -8.49728e-017 -0.382684
    outer loop
      vertex 16 6 37.5
      vertex 16 7.5 37.5
      vertex 16.4393 6 38.5607
    endloop
  endfacet
  facet normal 2.71917e-032 1 -2.22045e-016
    outer loop
      vertex 14 7.5 54.9
      vertex 21 7.5 54.9
      vertex 15 7.5 49.9
    endloop
  endfacet
  facet normal 2.71917e-032 1 -2.22045e-016
    outer loop
      vertex 15 7.5 49.9
      vertex 21 7.5 54.9
      vertex 20 7.5 49.9
    endloop
  endfacet
  facet normal -1.22461e-016 2.22045e-016 1
    outer loop
      vertex 14 7.5 54.9
      vertex 14 6 54.9
      vertex 21 6 54.9
    endloop
  endfacet
  facet normal -1.22461e-016 2.22045e-016 1
    outer loop
      vertex 21 7.5 54.9
      vertex 14 7.5 54.9
      vertex 21 6 54.9
    endloop
  endfacet
endsolid OpenSCAD_Model
